<svg xmlns="http://www.w3.org/2000/svg" xmlns:xlink="http://www.w3.org/1999/xlink" width="360" height="120" viewBox="0 0 360 120">
    <defs>
        <path id="a" d="M0 0h360v120H0z"/>
        <path id="c" d="M18.894 97.57c23.727 34.04 106.545 41.69 106.656-27.992v-.288c0-.569-.007-1.14-.019-1.718-1.004-48.557-25.183-62.921-43.34-66.431C78.775.48 74.695.129 70.195.129 33.063.132-32.286 24.146 18.894 97.57"/>
        <path id="e" d="M18.894 97.57c23.727 34.04 106.545 41.69 106.656-27.992v-.288c0-.569-.007-1.14-.019-1.718-1.004-48.557-25.183-62.921-43.34-66.431C78.775.48 74.695.129 70.195.129 33.063.132-32.286 24.146 18.894 97.57"/>
        <path id="g" d="M18.894 97.57c23.727 34.04 106.545 41.69 106.656-27.992v-.288c0-.569-.007-1.14-.019-1.718-1.004-48.557-25.183-62.921-43.34-66.431C78.775.48 74.695.129 70.195.129 33.063.132-32.286 24.146 18.894 97.57"/>
        <path id="i" d="M18.894 97.57c23.727 34.04 106.545 41.69 106.656-27.992v-.288c0-.569-.007-1.14-.019-1.718-1.004-48.557-25.183-62.921-43.34-66.431C78.775.48 74.695.129 70.195.129 33.063.132-32.286 24.146 18.894 97.57"/>
        <path id="k" d="M0 .401h35.306v46.885H0z"/>
    </defs>
    <g fill="none" fill-rule="evenodd">
        <mask id="b" fill="#fff">
            <use xlink:href="#a"/>
        </mask>
        <use fill="#F7F0C2" xlink:href="#a"/>
        <g mask="url(#b)">
            <path fill="#FAF6E4" d="M203.331 14.92c18.158 3.51 42.337 17.874 43.34 66.432 1.486 71.83-82.684 64.361-106.636 29.998C82.653 29.027 171.747 8.816 203.33 14.92"/>
            <g transform="translate(121.14 13.78)">
                <mask id="d" fill="#fff">
                    <use xlink:href="#c"/>
                </mask>
                <path fill="#FFF" d="M124.023 20.382c-.24 13.246 3.916 41.341-4.163 51.054-11.205 13.47-44.024 9.365-59.686 8.746-5.569-.22-15.329-2.632-15.671-20.868-1.673-89.157-10.006-73.36 45.94-72.894 5.227.043 24.677-.323 30.744 1.164.872.214 1.727.478 2.576.765.633 11.421.425 22.91.26 32.033" mask="url(#d)"/>
            </g>
            <g transform="translate(121.14 13.78)">
                <mask id="f" fill="#fff">
                    <use xlink:href="#e"/>
                </mask>
                <path fill="#FFD6C9" d="M65.04 66.268c.106 3.066-1.898 7.648 7.185 7.43 9.494-.229 18.979-.11 24.808-.328 5.83-.219 8.405-1.967 8.27-6.01-.137-4.042-1.763-4.042-13.15-4.042-11.388 0-27.249-.983-27.113 2.95" mask="url(#f)"/>
            </g>
            <g transform="translate(121.14 13.78)">
                <mask id="h" fill="#fff">
                    <use xlink:href="#g"/>
                </mask>
                <path fill="#FDEDEB" d="M76.527 58.078c-4.298-.076-6.793-2.017-4.045-2.905 2.748-.889 15.923.22 19.968.31 4.045.088 6.27.29 6.237 2.057-.034 1.9-7.277.868-12.832.82-4.996-.044-9.328-.282-9.328-.282" mask="url(#h)"/>
            </g>
            <g transform="translate(121.14 13.78)">
                <mask id="j" fill="#fff">
                    <use xlink:href="#i"/>
                </mask>
                <path fill="#FDEDEB" d="M66.76 51.211c-2.816-.471-4.16-2.652-.127-3.142 4.113-.501 13.428-.094 19.505.14 6.062.233 16.865 1.26 18.132 1.303 1.266.042 3.672 2.527-1.636 2.827-5.307.3-23.606-1.27-28.024-1.195-4.418.075-6.664.266-7.85.067" mask="url(#j)"/>
            </g>
            <g>
                <path fill="#F2D249" d="M166.69 36.071c-3.225.4-4.6 2.112-3.7 4.268.813 1.95 3.296 1.109 4.521.849 3.382-.718 6.304-.605 4.912-3.62-1.393-3.015-3.227-1.996-5.733-1.497M170.848 18.293c-3.993-2.693-6.899-2.8-7.551-.518-.59 2.063 2.9 3.776 4.501 4.726 4.421 2.622 7.67 5.382 8.43 2.067.76-3.314-2.129-4.31-5.38-6.275M238.982 40.092c2.895-.114 4.353 1.196 3.872 3.222-.436 1.833-2.742 1.452-3.858 1.4-3.08-.144-5.635.376-4.844-2.478.79-2.854 2.552-2.222 4.83-2.144M236.045 51.659c2.076 2.023 2.13 3.982.33 5.028-1.629.946-2.94-.99-3.67-1.836-2.016-2.335-4.153-3.83-1.54-5.221 2.615-1.391 3.368.322 4.88 2.029"/>
                <path fill="#FD6340" d="M191.751 12.855c-10.246 6.156-14.748 20.737-12.141 30.17 4.426 16.018 35.477 19.213 44.026 2.314 16.442-32.5-19.783-39.756-31.885-32.484"/>
                <path fill="#FFF" d="M197.392 17.741c6.129-3.37 8.87-2.574 13.338.69 4.467 3.264 3.302 8.556.337 10.721-2.965 2.166-5.497 6.317-6.057 8.518-.56 2.2-.618 4.654-2.66 4.459-2.04-.195-4.58-.641-3.574-6.298 1.006-5.657 4.289-7.093 6.41-10.194 2.122-3.101-1.557-6.214-6.51-1.944-3.031 2.614-5.137-3.832-1.284-5.952M201.336 44.876c-2.17-1.009-6.868-.028-5.05 2.898 1.82 2.926 6.564 4.032 6.737 1.49.173-2.542.665-3.296-1.687-4.388"/>
                <path fill="#0D6390" d="M147.493 35.39c-5.41-1.695-8.703 4.243-17.498 7.565-16.71 6.313-18.028 23.69-14.19 32.625 8.25 19.204 25.53-4.078 34.6-10.048 12.457-8.2 8.832-26.461-2.912-30.141"/>
                <path fill="#87BBD9" d="M154.685 82.812c4.005-5.314 3.202-9.03 1.472-14.338-.116-.354.376-1.073.253-1.441-.106-.32-1.418-.45-1.9-2.359-2.183-8.648-5.324-15.492-14.759-13.937-14.151 2.333-17.511 13.33-15.892 23.164 1.62 9.834 6.46 13.796 8.614 18.442 3.437 7.411-.928 15.342-4.139 23.094-4.084 9.862 20.492 5.69 27.023-.381 6.53-6.072 13.41-12.46 7.449-14.53-8.661-3.01-12.643-11.714-8.121-17.714"/>
                <g transform="translate(114 44.145)">
                    <mask id="l" fill="#fff">
                        <use xlink:href="#k"/>
                    </mask>
                    <path fill="#0D6390" d="M32.591 2.784c6.811 7.407-.509 12.736-7.54 13.222-9.4.65 9.768 22.051-4.94 30.592-2.485 1.444-6.024.378-7.965-1.03-2.38-1.726-22.555-20.698-5.1-37.924 9.324-9.201 22.486-8.187 25.545-4.86" mask="url(#l)"/>
                </g>
                <path fill="#87BBD9" d="M139.737 71.416c-2.834-.369-3.397 1.548-3.495 2.588-.24 2.55 1.329 3.671 3.638 3.014 1.445-.41 1.268-5.418-.143-5.602M207.92 61.951c-.304-4.837-1.818-8.815-1.206-12.597 1.042-6.436 5.696-14.175 6.997-12.396 1.064 1.456-3.754 8.212-3.014 9.065.886 1.02 1.34.236 2.814.423 8.954 1.132 2.136 11.713 2.614 14.985.96 6.575 8.018 26.81-3.08 44.575-11.098 17.765-33.211 15.929-44.196 15.848-3.165-.022-10.392-6.276-2.234-10.48 8.321-4.29 28.037.649 35.583-14.949 7.546-15.598 6.174-27.297 5.723-34.474"/>
                <path fill="#FFF" d="M124.404 112.588c1.34-9.722 6.038-11.94 8.807-12.415 1.526-.263-3.047 5.635 7.606 6.03 14.696.544 18.024-7.747 22.438-6.99 13.445 7.384 28.95 2.698 29.645 5.107 4.622 16.007 4.795 16.86 1.114 17.801-5.418 1.386-6.713 9.977-6.381 14.948.105 1.59-3.036 1.415-29.195 1.696-29.566.318-32.833-1.053-33.062-2.544-1.43-9.304-1.608-19.021-.972-23.633"/>
                <path fill="#083752" d="M152.146 63.879c-.338-.522-.3-.924.12-1.431.366-.445.997-.326 1.257-.094.59.526.735 1.896-.084 2.131-.556.16-1.011-.17-1.293-.606"/>
                <path fill="#0C5077" d="M147.567 61.052c1.78-2.026 3.59-2.44 5.093-2.378.393.016.727.311.746.665.02.355-.388.456-.78.435-1.187-.06-2.928.242-4.389 2.339-.202.29-.566.615-.885.384-.283-.203-.271-.891.215-1.445"/>
                <path fill="#FFF" d="M157.188 72.113c.08-.038-.036-.584-.35-1.52-.208-.622-.036-.39-1.346.192-.865.386-1.198.38-.688.89.437.438 1.113 1.034 2.384.438"/>
            </g>
        </g>
    </g>
</svg>
